<svg width="9" height="16" viewBox="0 0 9 16" fill="none" xmlns="http://www.w3.org/2000/svg">
<path d="M1.91032 10.7133C1.84183 10.7841 1.76007 10.8407 1.6697 10.8799C1.57934 10.9191 1.48214 10.9401 1.38366 10.9417C1.28518 10.9433 1.18735 10.9255 1.09575 10.8893C1.00414 10.8531 0.920564 10.7992 0.849786 10.7307C0.779007 10.6622 0.722412 10.5805 0.683232 10.4901C0.644052 10.3998 0.623055 10.3026 0.621439 10.2041C0.619822 10.1056 0.63762 10.0078 0.673813 9.9162C0.710006 9.8246 0.763887 9.74103 0.832379 9.67025C1.26099 9.2197 1.50002 8.62163 1.50002 7.99978C1.50002 7.37793 1.26099 6.77986 0.832379 6.32931C0.694052 6.18637 0.618174 5.99433 0.621439 5.79544C0.624703 5.59655 0.706842 5.40711 0.849786 5.26878C0.992729 5.13045 1.18477 5.05457 1.38366 5.05784C1.58255 5.0611 1.77199 5.14324 1.91032 5.28619C2.60966 6.0165 3.00005 6.98862 3.00005 7.99978C3.00005 9.01094 2.60966 9.98306 1.91032 10.7133ZM6.00001 7.99975C6.00701 6.1895 5.29791 4.44993 4.02738 3.16044C3.8879 3.01863 3.69779 2.93804 3.49888 2.9364C3.29998 2.93476 3.10857 3.0122 2.96676 3.15169C2.82495 3.29117 2.74436 3.48128 2.74272 3.68019C2.74108 3.87909 2.81852 4.0705 2.95801 4.21231C3.94666 5.22513 4.50009 6.58439 4.50009 7.99975C4.50009 9.41511 3.94666 10.7743 2.95801 11.7871C2.81852 11.929 2.74108 12.1204 2.74272 12.3193C2.74436 12.5182 2.82495 12.7083 2.96676 12.8478C3.10857 12.9873 3.29998 13.0647 3.49888 13.0631C3.69779 13.0614 3.8879 12.9808 4.02738 12.839C5.29791 11.5495 6.00701 9.80999 6.00001 7.99975ZM6.14713 14.9602C7.97525 13.1047 9 10.6045 9 7.99978C9 5.39501 7.97525 2.8948 6.14713 1.03931C6.07812 0.968176 5.9957 0.91142 5.90463 0.872328C5.81355 0.833236 5.71563 0.812583 5.61653 0.811563C5.51742 0.810543 5.4191 0.829175 5.32723 0.866384C5.23537 0.903592 5.1518 0.958639 5.08134 1.02834C5.01088 1.09804 4.95494 1.18102 4.91674 1.27247C4.87854 1.36392 4.85885 1.46204 4.8588 1.56115C4.85876 1.66026 4.87835 1.7584 4.91646 1.84989C4.95457 1.94138 5.01043 2.02441 5.08082 2.09419C6.63112 3.66886 7.50005 5.78999 7.50005 7.99975C7.50005 10.2095 6.63112 12.3306 5.08082 13.9053C5.01042 13.975 4.95455 14.0581 4.91643 14.1496C4.87832 14.241 4.85871 14.3392 4.85876 14.4383C4.8588 14.5374 4.87848 14.6355 4.91667 14.727C4.95486 14.8184 5.01081 14.9014 5.08126 14.9711C5.15172 15.0408 5.23529 15.0959 5.32715 15.1331C5.41901 15.1703 5.51734 15.189 5.61644 15.1879C5.71555 15.1869 5.81347 15.1663 5.90455 15.1272C5.99563 15.0881 6.07812 15.0313 6.14713 14.9602Z" fill="#4F4F4F"/>
</svg>
