<svg width="120" height="120" viewBox="0 0 120 120" fill="none" xmlns="http://www.w3.org/2000/svg">
<circle cx="60" cy="60" r="50" fill="#CDE8F8"/>
<g filter="url(#filter0_iii)">
<path d="M91.7496 49.7083C91.7496 58.7292 86.5218 68.0084 76.2111 77.2878C71.5345 81.4801 66.4481 85.1913 61.0286 88.3655C60.6761 88.563 60.2788 88.6667 59.8748 88.6667C59.4707 88.6667 59.0735 88.563 58.7209 88.3655C57.4666 87.6631 28 70.9178 28 49.7083C28.0012 45.9924 29.171 42.371 31.3437 39.3565C33.5164 36.342 36.5821 34.0871 40.1069 32.9109C43.6317 31.7347 47.4371 31.6966 50.9847 32.8022C54.5323 33.9078 57.6424 36.101 59.8749 39.0715C62.1074 36.101 65.2175 33.9078 68.7651 32.8022C72.3127 31.6966 76.1182 31.7347 79.643 32.9109C83.1678 34.0871 86.2335 36.342 88.4062 39.3565C90.5789 42.371 91.7486 45.9924 91.7499 49.7083H91.7496Z" fill="white"/>
</g>
<path d="M59.9131 90C59.69 90.0001 59.4705 89.9428 59.2759 89.8337C53.3717 86.3751 47.8305 82.3311 42.7361 77.7629C31.6306 67.7683 26 57.8422 26 48.2608C26.0009 44.2691 27.3095 40.3875 29.7256 37.21C32.1416 34.0325 35.5321 31.7339 39.3783 30.6659C43.2245 29.5979 47.3147 29.8193 51.0232 31.2962C54.7316 32.7732 57.8542 35.4243 59.9131 38.8441C61.972 35.4243 65.0945 32.7732 68.803 31.2962C72.5115 29.8193 76.6017 29.5979 80.4479 30.6659C84.2941 31.7339 87.6846 34.0325 90.1006 37.21C92.5166 40.3875 93.8252 44.2691 93.8262 48.2608C93.8262 57.8422 88.1953 67.7683 77.0901 77.7629C71.9956 82.3311 66.4545 86.3751 60.5503 89.8337C60.3556 89.9428 60.1362 90.0001 59.9131 90ZM44.2609 32.6086C40.1111 32.6133 36.1326 34.2638 33.1983 37.1982C30.2639 40.1325 28.6134 44.111 28.6087 48.2608C28.6087 67.7286 55.4053 84.5025 59.9131 87.1855C64.4209 84.5028 91.2175 67.7286 91.2175 48.2608C91.2169 44.643 89.9633 41.1371 87.6699 38.3392C85.3765 35.5412 82.1848 33.6239 78.6375 32.9133C75.0902 32.2026 71.4063 32.7425 68.2121 34.4411C65.0179 36.1397 62.5105 38.8921 61.1163 42.2305C61.0171 42.4677 60.8499 42.6703 60.6358 42.8128C60.4217 42.9553 60.1703 43.0314 59.9131 43.0314C59.6559 43.0314 59.4045 42.9553 59.1904 42.8128C58.9763 42.6703 58.8091 42.4677 58.7098 42.2305C57.5231 39.3773 55.5169 36.9402 52.9449 35.2275C50.3729 33.5148 47.3507 32.6034 44.2606 32.6086H44.2609Z" fill="#0064A9"/>
<path d="M78.6338 51.1337L74.5178 55.25L78.6338 59.3662C78.7532 59.4815 78.8484 59.6195 78.9139 59.772C78.9794 59.9245 79.0139 60.0885 79.0153 60.2545C79.0168 60.4205 78.9851 60.5851 78.9223 60.7387C78.8594 60.8923 78.7666 61.0319 78.6493 61.1492C78.5319 61.2666 78.3923 61.3594 78.2387 61.4223C78.0851 61.4851 77.9205 61.5167 77.7545 61.5153C77.5885 61.5139 77.4245 61.4794 77.272 61.4139C77.1195 61.3483 76.9816 61.2531 76.8663 61.1337L72.75 57.0178L68.6338 61.1337C68.398 61.3614 68.0823 61.4874 67.7545 61.4846C67.4268 61.4817 67.1133 61.3503 66.8815 61.1185C66.6497 60.8867 66.5183 60.5732 66.5154 60.2455C66.5126 59.9177 66.6386 59.602 66.8663 59.3662L70.9822 55.25L66.8663 51.1337C66.6386 50.898 66.5126 50.5822 66.5154 50.2545C66.5183 49.9267 66.6497 49.6132 66.8815 49.3815C67.1133 49.1497 67.4268 49.0182 67.7545 49.0154C68.0823 49.0125 68.398 49.1385 68.6338 49.3662L72.75 53.4822L76.8663 49.3662C76.9816 49.2468 77.1195 49.1516 77.272 49.0861C77.4245 49.0206 77.5885 48.9861 77.7545 48.9847C77.9205 48.9832 78.0851 49.0149 78.2387 49.0777C78.3923 49.1406 78.5319 49.2334 78.6493 49.3507C78.7666 49.4681 78.8594 49.6077 78.9223 49.7613C78.9851 49.9149 79.0168 50.0795 79.0153 50.2455C79.0139 50.4115 78.9794 50.5755 78.9139 50.728C78.8484 50.8805 78.7532 51.0184 78.6338 51.1337ZM53.6338 51.1337L49.5178 55.25L53.6338 59.3662C53.7532 59.4815 53.8484 59.6195 53.9139 59.772C53.9794 59.9245 54.0139 60.0885 54.0153 60.2545C54.0168 60.4205 53.9852 60.5851 53.9223 60.7387C53.8594 60.8923 53.7666 61.0319 53.6493 61.1492C53.5319 61.2666 53.3923 61.3594 53.2387 61.4223C53.0851 61.4851 52.9205 61.5167 52.7545 61.5153C52.5885 61.5139 52.4245 61.4794 52.272 61.4139C52.1195 61.3483 51.9816 61.2531 51.8663 61.1337L47.75 57.0178L43.6338 61.1337C43.398 61.3614 43.0823 61.4874 42.7545 61.4846C42.4268 61.4817 42.1133 61.3503 41.8815 61.1185C41.6497 60.8867 41.5183 60.5732 41.5154 60.2455C41.5126 59.9177 41.6386 59.602 41.8663 59.3662L45.9822 55.25L41.8663 51.1337C41.6386 50.898 41.5126 50.5822 41.5154 50.2545C41.5183 49.9267 41.6497 49.6132 41.8815 49.3815C42.1133 49.1497 42.4268 49.0182 42.7545 49.0154C43.0823 49.0125 43.398 49.1385 43.6338 49.3662L47.75 53.4822L51.8663 49.3662C52.102 49.1385 52.4178 49.0125 52.7455 49.0154C53.0733 49.0182 53.3868 49.1497 53.6185 49.3815C53.8503 49.6132 53.9818 49.9267 53.9846 50.2545C53.9875 50.5822 53.8615 50.898 53.6338 51.1337ZM62.75 76.5C62.75 76.9944 62.6034 77.4778 62.3287 77.8889C62.054 78.3 61.6635 78.6205 61.2067 78.8097C60.7499 78.9989 60.2472 79.0484 59.7623 78.9519C59.2773 78.8555 58.8319 78.6174 58.4823 78.2677C58.1326 77.9181 57.8945 77.4727 57.7981 76.9877C57.7016 76.5028 57.7511 76.0001 57.9403 75.5433C58.1295 75.0865 58.45 74.696 58.8611 74.4213C59.2722 74.1466 59.7556 74 60.25 74C60.9128 74.0008 61.5482 74.2645 62.0169 74.7331C62.4855 75.2018 62.7492 75.8372 62.75 76.5Z" fill="#0064A9"/>
<circle cx="14" cy="4" r="3.5" stroke="#CDE8F8"/>
<circle cx="100" cy="102" r="3.5" stroke="#CDE8F8"/>
<circle cx="2" cy="29" r="1.5" stroke="#CDE8F8"/>
<circle cx="118" cy="65" r="1.5" stroke="#CDE8F8"/>
<defs>
<filter id="filter0_iii" x="20" y="24" width="73.7499" height="66.6667" filterUnits="userSpaceOnUse" color-interpolation-filters="sRGB">
<feFlood flood-opacity="0" result="BackgroundImageFix"/>
<feBlend mode="normal" in="SourceGraphic" in2="BackgroundImageFix" result="shape"/>
<feColorMatrix in="SourceAlpha" type="matrix" values="0 0 0 0 0 0 0 0 0 0 0 0 0 0 0 0 0 0 127 0" result="hardAlpha"/>
<feOffset dy="2"/>
<feGaussianBlur stdDeviation="2"/>
<feComposite in2="hardAlpha" operator="arithmetic" k2="-1" k3="1"/>
<feColorMatrix type="matrix" values="0 0 0 0 0 0 0 0 0 0.392157 0 0 0 0 0.662745 0 0 0 0.5 0"/>
<feBlend mode="multiply" in2="shape" result="effect1_innerShadow"/>
<feColorMatrix in="SourceAlpha" type="matrix" values="0 0 0 0 0 0 0 0 0 0 0 0 0 0 0 0 0 0 127 0" result="hardAlpha"/>
<feOffset dx="-8" dy="-8"/>
<feGaussianBlur stdDeviation="10"/>
<feComposite in2="hardAlpha" operator="arithmetic" k2="-1" k3="1"/>
<feColorMatrix type="matrix" values="0 0 0 0 1 0 0 0 0 1 0 0 0 0 1 0 0 0 1 0"/>
<feBlend mode="soft-light" in2="effect1_innerShadow" result="effect2_innerShadow"/>
<feColorMatrix in="SourceAlpha" type="matrix" values="0 0 0 0 0 0 0 0 0 0 0 0 0 0 0 0 0 0 127 0" result="hardAlpha"/>
<feOffset dx="2"/>
<feGaussianBlur stdDeviation="2"/>
<feComposite in2="hardAlpha" operator="arithmetic" k2="-1" k3="1"/>
<feColorMatrix type="matrix" values="0 0 0 0 0 0 0 0 0 0.392157 0 0 0 0 0.662745 0 0 0 0.5 0"/>
<feBlend mode="normal" in2="effect2_innerShadow" result="effect3_innerShadow"/>
</filter>
</defs>
</svg>
