<svg width="120" height="120" viewBox="0 0 120 120" fill="none" xmlns="http://www.w3.org/2000/svg">
<circle cx="60" cy="60" r="50" fill="#CDE8F8"/>
<g filter="url(#filter0_iii)">
<path d="M91.7496 49.7083C91.7496 58.7292 86.5218 68.0084 76.2111 77.2878C71.5345 81.4801 66.4481 85.1913 61.0286 88.3655C60.6761 88.563 60.2788 88.6667 59.8748 88.6667C59.4707 88.6667 59.0735 88.563 58.7209 88.3655C57.4666 87.6631 28 70.9178 28 49.7083C28.0012 45.9924 29.171 42.371 31.3437 39.3565C33.5164 36.342 36.5821 34.0871 40.1069 32.9109C43.6317 31.7347 47.4371 31.6966 50.9847 32.8022C54.5323 33.9078 57.6424 36.101 59.8749 39.0715C62.1074 36.101 65.2175 33.9078 68.7651 32.8022C72.3127 31.6966 76.1182 31.7347 79.643 32.9109C83.1678 34.0871 86.2335 36.342 88.4062 39.3565C90.5789 42.371 91.7486 45.9924 91.7499 49.7083H91.7496Z" fill="white"/>
</g>
<path d="M59.9131 90C59.69 90.0001 59.4705 89.9428 59.2759 89.8337C53.3717 86.3751 47.8305 82.3311 42.7361 77.7629C31.6306 67.7683 26 57.8422 26 48.2608C26.0009 44.2691 27.3095 40.3875 29.7256 37.21C32.1416 34.0325 35.5321 31.7339 39.3783 30.6659C43.2245 29.5979 47.3147 29.8193 51.0232 31.2962C54.7316 32.7732 57.8542 35.4243 59.9131 38.8441C61.972 35.4243 65.0945 32.7732 68.803 31.2962C72.5115 29.8193 76.6017 29.5979 80.4479 30.6659C84.2941 31.7339 87.6846 34.0325 90.1006 37.21C92.5166 40.3875 93.8252 44.2691 93.8262 48.2608C93.8262 57.8422 88.1953 67.7683 77.0901 77.7629C71.9956 82.3311 66.4545 86.3751 60.5503 89.8337C60.3556 89.9428 60.1362 90.0001 59.9131 90ZM44.2609 32.6086C40.1111 32.6133 36.1326 34.2638 33.1983 37.1982C30.2639 40.1325 28.6134 44.111 28.6087 48.2608C28.6087 67.7286 55.4053 84.5025 59.9131 87.1855C64.4209 84.5028 91.2175 67.7286 91.2175 48.2608C91.2169 44.643 89.9633 41.1371 87.6699 38.3392C85.3765 35.5412 82.1848 33.6239 78.6375 32.9133C75.0902 32.2026 71.4063 32.7425 68.2121 34.4411C65.0179 36.1397 62.5105 38.8921 61.1163 42.2305C61.0171 42.4677 60.8499 42.6703 60.6358 42.8128C60.4217 42.9553 60.1703 43.0314 59.9131 43.0314C59.6559 43.0314 59.4045 42.9553 59.1904 42.8128C58.9763 42.6703 58.8091 42.4677 58.7098 42.2305C57.5231 39.3773 55.5169 36.9402 52.9449 35.2275C50.3729 33.5148 47.3507 32.6034 44.2606 32.6086H44.2609Z" fill="#0064A9"/>
<path d="M74.0751 68.1247C72.6473 70.5938 70.5952 72.6438 68.1248 74.0691C65.6543 75.4944 62.8523 76.2447 60.0002 76.2447C57.148 76.2447 54.346 75.4945 51.8755 74.0693C49.405 72.6441 47.3528 70.5941 45.9251 68.125C45.764 67.8384 45.7224 67.4998 45.8092 67.1827C45.896 66.8656 46.1043 66.5954 46.3888 66.4308C46.6734 66.2661 47.0114 66.2202 47.3296 66.303C47.6478 66.3858 47.9206 66.5906 48.0888 66.8731C49.5892 69.465 51.8913 71.499 54.6482 72.6687C57.1686 73.7349 59.95 74.0239 62.6358 73.4988C65.3215 72.9737 67.7893 71.6584 69.7226 69.7216C70.5731 68.8713 71.3089 67.9137 71.9113 66.8728C72.0784 66.5879 72.3514 66.3808 72.6708 66.2965C72.9901 66.2123 73.3298 66.2579 73.6156 66.4233C73.9015 66.5887 74.1102 66.8606 74.1963 67.1794C74.2824 67.4982 74.2388 67.8379 74.0751 68.1247ZM46.2501 53.75C46.2501 53.2555 46.3967 52.7722 46.6714 52.3611C46.9461 51.95 47.3365 51.6295 47.7934 51.4403C48.2502 51.2511 48.7528 51.2016 49.2378 51.298C49.7227 51.3945 50.1682 51.6326 50.5178 51.9822C50.8675 52.3319 51.1056 52.7773 51.202 53.2623C51.2985 53.7472 51.249 54.2499 51.0598 54.7067C50.8705 55.1635 50.5501 55.554 50.139 55.8287C49.7279 56.1034 49.2445 56.25 48.7501 56.25C48.0873 56.2492 47.4519 55.9855 46.9832 55.5169C46.5145 55.0482 46.2509 54.4128 46.2501 53.75ZM68.7501 53.75C68.7501 53.2555 68.8967 52.7722 69.1714 52.3611C69.4461 51.95 69.8365 51.6295 70.2934 51.4403C70.7502 51.2511 71.2528 51.2016 71.7378 51.298C72.2227 51.3945 72.6682 51.6326 73.0178 51.9822C73.3675 52.3319 73.6056 52.7773 73.702 53.2623C73.7985 53.7472 73.749 54.2499 73.5598 54.7067C73.3705 55.1635 73.0501 55.554 72.639 55.8287C72.2279 56.1034 71.7445 56.25 71.2501 56.25C70.5873 56.2492 69.9519 55.9855 69.4832 55.5169C69.0145 55.0482 68.7509 54.4128 68.7501 53.75Z" fill="#0064A9"/>
<circle cx="14" cy="4" r="3.5" stroke="#CDE8F8"/>
<circle cx="100" cy="102" r="3.5" stroke="#CDE8F8"/>
<circle cx="2" cy="29" r="1.5" stroke="#CDE8F8"/>
<circle cx="118" cy="65" r="1.5" stroke="#CDE8F8"/>
<defs>
<filter id="filter0_iii" x="20" y="24" width="73.7499" height="66.6667" filterUnits="userSpaceOnUse" color-interpolation-filters="sRGB">
<feFlood flood-opacity="0" result="BackgroundImageFix"/>
<feBlend mode="normal" in="SourceGraphic" in2="BackgroundImageFix" result="shape"/>
<feColorMatrix in="SourceAlpha" type="matrix" values="0 0 0 0 0 0 0 0 0 0 0 0 0 0 0 0 0 0 127 0" result="hardAlpha"/>
<feOffset dy="2"/>
<feGaussianBlur stdDeviation="2"/>
<feComposite in2="hardAlpha" operator="arithmetic" k2="-1" k3="1"/>
<feColorMatrix type="matrix" values="0 0 0 0 0 0 0 0 0 0.392157 0 0 0 0 0.662745 0 0 0 0.5 0"/>
<feBlend mode="multiply" in2="shape" result="effect1_innerShadow"/>
<feColorMatrix in="SourceAlpha" type="matrix" values="0 0 0 0 0 0 0 0 0 0 0 0 0 0 0 0 0 0 127 0" result="hardAlpha"/>
<feOffset dx="-8" dy="-8"/>
<feGaussianBlur stdDeviation="10"/>
<feComposite in2="hardAlpha" operator="arithmetic" k2="-1" k3="1"/>
<feColorMatrix type="matrix" values="0 0 0 0 1 0 0 0 0 1 0 0 0 0 1 0 0 0 1 0"/>
<feBlend mode="soft-light" in2="effect1_innerShadow" result="effect2_innerShadow"/>
<feColorMatrix in="SourceAlpha" type="matrix" values="0 0 0 0 0 0 0 0 0 0 0 0 0 0 0 0 0 0 127 0" result="hardAlpha"/>
<feOffset dx="2"/>
<feGaussianBlur stdDeviation="2"/>
<feComposite in2="hardAlpha" operator="arithmetic" k2="-1" k3="1"/>
<feColorMatrix type="matrix" values="0 0 0 0 0 0 0 0 0 0.392157 0 0 0 0 0.662745 0 0 0 0.5 0"/>
<feBlend mode="normal" in2="effect2_innerShadow" result="effect3_innerShadow"/>
</filter>
</defs>
</svg>
