<svg width="16" height="13" viewBox="0 0 16 13" fill="none" xmlns="http://www.w3.org/2000/svg">
<path d="M10.0003 12.25C9.98781 12.25 9.97537 12.2497 9.96281 12.2491C9.81735 12.2418 9.67716 12.1924 9.55933 12.1068C9.44151 12.0211 9.35116 11.9031 9.29931 11.767L5.93918 2.94662L4.18293 6.81037C4.12334 6.94147 4.02726 7.05264 3.90618 7.1306C3.7851 7.20855 3.64413 7.25 3.50012 7.25H1.50012C1.30121 7.25 1.11044 7.17098 0.969792 7.03032C0.82914 6.88967 0.750122 6.69891 0.750122 6.5C0.750122 6.30108 0.82914 6.11032 0.969792 5.96967C1.11044 5.82901 1.30121 5.75 1.50012 5.75H3.01725L5.31737 0.68962C5.37862 0.55489 5.47836 0.44129 5.60404 0.363127C5.72971 0.284964 5.87571 0.245731 6.02363 0.250368C6.17156 0.255006 6.31481 0.303306 6.43534 0.389187C6.55588 0.475069 6.64831 0.59469 6.701 0.733L10.0931 9.6371L11.8293 6.16462C11.8916 6.04004 11.9873 5.93526 12.1058 5.86203C12.2243 5.7888 12.3608 5.75001 12.5001 5.75H14.5001C14.699 5.75 14.8898 5.82901 15.0305 5.96967C15.1711 6.11032 15.2501 6.30108 15.2501 6.5C15.2501 6.69891 15.1711 6.88967 15.0305 7.03032C14.8898 7.17098 14.699 7.25 14.5001 7.25H12.9636L10.671 11.8354C10.6087 11.96 10.513 12.0647 10.3945 12.1379C10.2761 12.2112 10.1396 12.25 10.0004 12.25H10.0003Z" fill="#4F4F4F"/>
</svg>
