<svg width="26" height="24" viewBox="0 0 26 24" fill="none" xmlns="http://www.w3.org/2000/svg">
<path d="M6 12.5H1C0.867392 12.5 0.740215 12.4473 0.646447 12.3536C0.552679 12.2598 0.5 12.1326 0.5 12C0.5 11.8674 0.552679 11.7402 0.646447 11.6464C0.740215 11.5527 0.867392 11.5 1 11.5H5.7325L7.584 8.72262C7.62966 8.65415 7.69152 8.598 7.76409 8.55916C7.83666 8.52033 7.91769 8.50001 8 8.50001C8.08231 8.50001 8.16334 8.52033 8.23591 8.55916C8.30848 8.598 8.37034 8.65415 8.416 8.72262L12 14.0987L13.584 11.7227C13.6296 11.6542 13.6915 11.5981 13.7641 11.5592C13.8366 11.5204 13.9177 11.5 14 11.5H17C17.1326 11.5 17.2598 11.5527 17.3536 11.6464C17.4473 11.7402 17.5 11.8674 17.5 12C17.5 12.1326 17.4473 12.2598 17.3536 12.3536C17.2598 12.4473 17.1326 12.5 17 12.5H14.2675L12.416 15.2774C12.3703 15.3459 12.3085 15.402 12.2359 15.4408C12.1633 15.4797 12.0823 15.5 12 15.5C11.9177 15.5 11.8367 15.4797 11.7641 15.4408C11.6915 15.402 11.6297 15.3459 11.584 15.2774L8 9.90125L6.416 12.2772C6.37035 12.3458 6.3085 12.4019 6.23593 12.4408C6.16336 12.4796 6.08232 12.5 6 12.5ZM19 0.499999C17.7921 0.497924 16.6043 0.809202 15.5527 1.40342C14.501 1.99764 13.6215 2.85449 13 3.89025C12.2107 2.57934 11.0138 1.56307 9.5922 0.996913C8.17063 0.430756 6.60272 0.345884 5.12834 0.755281C3.65396 1.16468 2.35428 2.0458 1.42813 3.26386C0.501985 4.48191 0.000361739 5.96983 0 7.5C0 7.67462 0.00500011 7.85212 0.0150001 8.02762C0.0225422 8.16003 0.0823746 8.28402 0.181335 8.37232C0.280296 8.46061 0.410278 8.50598 0.542687 8.49844C0.675097 8.49089 0.799087 8.43106 0.887381 8.3321C0.975676 8.23314 1.02104 8.10316 1.0135 7.97075C1.00453 7.81399 1.00003 7.65701 1 7.5C1.00023 6.11319 1.48076 4.76926 2.3599 3.69671C3.23904 2.62416 4.46252 1.8892 5.82231 1.61679C7.1821 1.34437 8.59427 1.55132 9.81872 2.20244C11.0432 2.85357 12.0043 3.90867 12.5387 5.18837C12.5768 5.27937 12.6408 5.35708 12.7229 5.41175C12.805 5.46642 12.9014 5.4956 13 5.49562C13.0986 5.4956 13.195 5.46642 13.2771 5.41175C13.3592 5.35708 13.4232 5.27937 13.4613 5.18837C13.9957 3.90867 14.9568 2.85357 16.1813 2.20244C17.4057 1.55132 18.8179 1.34437 20.1777 1.61679C21.5375 1.8892 22.761 2.62416 23.6401 3.69671C24.5192 4.76926 24.9998 6.11319 25 7.5C25 14.9631 14.7268 21.3935 12.9998 22.4212C11.9598 21.804 7.82387 19.2347 4.70862 15.6711C4.62105 15.5724 4.49798 15.5122 4.36625 15.5039C4.23453 15.4955 4.10484 15.5396 4.00546 15.6264C3.90608 15.7133 3.84509 15.8359 3.83578 15.9676C3.82646 16.0993 3.86959 16.2293 3.95575 16.3292C7.64488 20.5494 12.5487 23.3204 12.7557 23.4362C12.8304 23.478 12.9145 23.5 13.0001 23.5C13.0856 23.5 13.1697 23.478 13.2444 23.4362C15.5075 22.1104 17.6316 20.5602 19.5844 18.8091C23.8416 14.9779 26 11.1729 26 7.5C25.9979 5.64413 25.2597 3.86489 23.9474 2.55259C22.6351 1.24029 20.8559 0.502116 19 0.499999Z" fill="#4F4F4F"/>
</svg>
