<svg width="28" height="24" viewBox="0 0 28 24" fill="none" xmlns="http://www.w3.org/2000/svg">
<path d="M27.5 7.5C27.5 11.3206 25.2858 15.2506 20.919 19.1807C18.9383 20.9563 16.784 22.5281 14.4886 23.8725C14.3393 23.9561 14.1711 24 14 24C13.8289 24 13.6607 23.9561 13.5114 23.8725C13.0948 23.6391 5.32937 19.2262 1.998 13H7C7.16463 13 7.3267 12.9593 7.47184 12.8816C7.61698 12.8039 7.74069 12.6916 7.832 12.5546L9 10.8027L12.168 15.5547C12.2593 15.6917 12.383 15.804 12.5282 15.8817C12.6733 15.9593 12.8354 16 13 16C13.1646 16 13.3267 15.9593 13.4718 15.8817C13.617 15.804 13.7407 15.6917 13.832 15.5547L15.5351 13H18C18.2652 13 18.5196 12.8946 18.7071 12.7071C18.8946 12.5196 19 12.2652 19 12C19 11.7348 18.8946 11.4804 18.7071 11.2929C18.5196 11.1054 18.2652 11 18 11H15C14.8354 11 14.6733 11.0407 14.5282 11.1184C14.383 11.1961 14.2593 11.3084 14.168 11.4454L13 13.1971L9.832 8.44525C9.74068 8.30829 9.61696 8.196 9.47182 8.11833C9.32668 8.04066 9.16461 8.00002 9 8.00002C8.83539 8.00002 8.67332 8.04066 8.52818 8.11833C8.38304 8.196 8.25932 8.30829 8.168 8.44525L6.46488 11H1.11613C0.716209 9.87606 0.507936 8.69294 0.5 7.5C0.500523 5.92621 0.995942 4.39243 1.91615 3.11571C2.83636 1.83898 4.13477 0.883961 5.62763 0.385787C7.12049 -0.112387 8.73221 -0.128486 10.2347 0.339766C11.7372 0.808019 13.0545 1.73691 14 2.995C14.9455 1.73691 16.2628 0.808019 17.7653 0.339766C19.2678 -0.128486 20.8795 -0.112387 22.3724 0.385787C23.8652 0.883961 25.1636 1.83898 26.0838 3.11571C27.0041 4.39243 27.4995 5.92621 27.5 7.5Z" fill="#0064A9"/>
</svg>
