<svg width="30" height="20" viewBox="0 0 30 20" fill="none" xmlns="http://www.w3.org/2000/svg">
<path d="M12.8921 13.8722C14.3488 13.2113 15.5351 12.0716 16.2538 10.6425C16.9724 9.21354 17.18 7.58151 16.8419 6.01811C16.5039 4.4547 15.6406 3.05423 14.3957 2.0498C13.1509 1.04537 11.5996 0.497559 10.0001 0.497559C8.40052 0.497559 6.84923 1.04537 5.60438 2.0498C4.35954 3.05423 3.49624 4.4547 3.15818 6.01811C2.82012 7.58151 3.02769 9.21354 3.74633 10.6425C4.46498 12.0716 5.65135 13.2113 7.10799 13.8722C4.47019 14.5593 2.16116 16.1588 0.590742 18.3868C0.551478 18.4404 0.523292 18.5013 0.507832 18.5659C0.492372 18.6306 0.489948 18.6976 0.500702 18.7632C0.511456 18.8288 0.535172 18.8915 0.570464 18.9478C0.605756 19.0041 0.651917 19.0528 0.706247 19.0911C0.760578 19.1294 0.821989 19.1564 0.886891 19.1706C0.951793 19.1849 1.01888 19.1861 1.08424 19.1741C1.1496 19.1621 1.21192 19.1372 1.26755 19.1009C1.32318 19.0645 1.37101 19.0175 1.40824 18.9624C2.37726 17.584 3.66373 16.4589 5.15904 15.6822C6.65435 14.9055 8.31459 14.5 9.99958 14.4999C11.6846 14.4999 13.3448 14.9052 14.8402 15.6818C16.3356 16.4584 17.6221 17.5834 18.5912 18.9618C18.6677 19.0701 18.7839 19.1436 18.9145 19.1662C19.0451 19.1887 19.1793 19.1586 19.2876 19.0823C19.3959 19.006 19.4696 18.8898 19.4923 18.7593C19.515 18.6287 19.485 18.4945 19.4089 18.3861C17.8385 16.1584 15.5296 14.5592 12.8921 13.8722ZM3.99999 7.50007C3.99999 6.31338 4.35189 5.15334 5.01117 4.16665C5.67046 3.17995 6.60754 2.41092 7.70389 1.95679C8.80025 1.50267 10.0066 1.38385 11.1705 1.61536C12.3344 1.84687 13.4035 2.41831 14.2426 3.25743C15.0817 4.09654 15.6532 5.16564 15.8847 6.32953C16.1162 7.49341 15.9974 8.69981 15.5433 9.79617C15.0891 10.8925 14.3201 11.8296 13.3334 12.4889C12.3467 13.1482 11.1867 13.5001 9.99999 13.5001C8.40924 13.4983 6.88416 12.8656 5.75933 11.7407C4.63449 10.6159 4.00178 9.09082 3.99999 7.50007ZM29.4782 19.0828C29.4246 19.1206 29.3639 19.1475 29.2999 19.1619C29.2358 19.1763 29.1695 19.1779 29.1048 19.1666C29.0401 19.1554 28.9783 19.1315 28.9228 19.0964C28.8673 19.0612 28.8193 19.0155 28.7815 18.9618C27.8112 17.5847 26.5245 16.4606 25.0295 15.6842C23.5345 14.9078 21.8749 14.5017 20.1902 14.5001C20.0576 14.5001 19.9305 14.4474 19.8367 14.3536C19.7429 14.2599 19.6902 14.1327 19.6902 14.0001C19.6902 13.8675 19.7429 13.7403 19.8367 13.6465C19.9305 13.5527 20.0576 13.5001 20.1902 13.5001C21.0471 13.4992 21.8938 13.3149 22.6735 12.9594C23.4531 12.6039 24.1476 12.0856 24.7101 11.4393C25.2727 10.7929 25.6903 10.0336 25.9348 9.21239C26.1794 8.39117 26.2452 7.5271 26.1278 6.67831C26.0104 5.82953 25.7127 5.01573 25.2545 4.29167C24.7963 3.56761 24.1883 2.95008 23.4715 2.48065C22.7547 2.01121 21.9456 1.70075 21.0988 1.57016C20.2519 1.43957 19.3869 1.49188 18.562 1.72357C18.4988 1.74135 18.4327 1.7465 18.3675 1.73873C18.3023 1.73096 18.2392 1.71043 18.182 1.6783C18.1247 1.64617 18.0743 1.60308 18.0337 1.55148C17.9931 1.49988 17.963 1.44078 17.9452 1.37757C17.9275 1.31435 17.9223 1.24826 17.9301 1.18305C17.9378 1.11784 17.9584 1.05481 17.9905 0.997535C18.0226 0.940264 18.0657 0.889883 18.1173 0.849267C18.1689 0.808651 18.228 0.778596 18.2912 0.760818C19.9899 0.282181 21.8067 0.462859 23.3778 1.26668C24.9489 2.07049 26.1584 3.43812 26.7641 5.09571C27.3698 6.75331 27.327 8.57854 26.6443 10.2059C25.9616 11.8333 24.6893 13.1428 23.0822 13.8721C25.7198 14.5591 28.0287 16.1584 29.5991 18.3861C29.6369 18.4398 29.6638 18.5004 29.6782 18.5644C29.6926 18.6285 29.6942 18.6948 29.683 18.7595C29.6718 18.8242 29.6479 18.886 29.6128 18.9415C29.5776 18.997 29.5319 19.045 29.4782 19.0828Z" fill="#4F4F4F"/>
</svg>
