<svg width="31" height="21" viewBox="0 0 31 21" fill="none" xmlns="http://www.w3.org/2000/svg">
<path d="M19.8178 19.098C19.9232 19.2478 19.9855 19.4237 19.9979 19.6064C20.0102 19.7892 19.9721 19.9718 19.8877 20.1344C19.8034 20.297 19.6759 20.4333 19.5194 20.5284C19.3629 20.6235 19.1832 20.6738 19 20.6738L0.999514 20.6745C0.816338 20.6746 0.636674 20.6243 0.480129 20.5292C0.323583 20.434 0.196171 20.2978 0.111795 20.1352C0.0274197 19.9726 -0.0106775 19.7899 0.00166123 19.6072C0.0139999 19.4244 0.0763005 19.2486 0.181764 19.0988C1.58613 17.1061 3.56292 15.5872 5.85014 14.7434C4.50842 13.8522 3.48927 12.5526 2.94354 11.0372C2.3978 9.52167 2.35446 7.87075 2.81995 6.32871C3.28543 4.78668 4.235 3.43548 5.52811 2.47507C6.82123 1.51467 8.3892 0.996094 9.99995 0.996094C11.6107 0.996094 13.1787 1.51467 14.4718 2.47507C15.7649 3.43548 16.7145 4.78668 17.18 6.32871C17.6454 7.87075 17.6021 9.52167 17.0564 11.0372C16.5106 12.5526 15.4915 13.8522 14.1498 14.7434C16.4367 15.587 18.4133 17.1057 19.8176 19.098H19.8178ZM30.008 19.098C28.6036 17.1056 26.627 15.587 24.34 14.7434C25.8272 13.7537 26.9123 12.2657 27.4 10.5472C27.8877 8.82873 27.746 6.99257 27.0004 5.36924C26.2548 3.74591 24.9542 2.44202 23.3328 1.69223C21.7114 0.942449 19.8756 0.796017 18.1559 1.27929C17.9998 1.32321 17.8567 1.40444 17.7389 1.51598C17.6212 1.62752 17.5324 1.76602 17.4801 1.91954C17.4278 2.07306 17.4136 2.23699 17.4388 2.3972C17.464 2.55741 17.5278 2.70909 17.6246 2.83917C18.755 4.35768 19.4049 6.17987 19.4904 8.071C19.576 9.96212 19.0933 11.8355 18.1046 13.4499C17.9741 13.6628 17.9279 13.9169 17.9752 14.1621C18.0225 14.4073 18.1599 14.626 18.3603 14.775C18.7394 15.0572 19.1041 15.3582 19.4531 15.6769C19.4713 15.6965 19.4894 15.716 19.5094 15.7344C20.8441 16.9683 21.9258 18.4503 22.6941 20.0975C22.7747 20.27 22.9027 20.4158 23.0632 20.518C23.2237 20.6202 23.4101 20.6745 23.6004 20.6744L29.1904 20.6738C29.3735 20.6738 29.5532 20.6234 29.7097 20.5283C29.8662 20.4332 29.9936 20.2969 30.0779 20.1343C30.1623 19.9717 30.2003 19.7891 30.188 19.6064C30.1756 19.4236 30.1133 19.2478 30.0079 19.098H30.008Z" fill="#0064A9"/>
</svg>
