<svg width="26" height="26" viewBox="0 0 26 26" fill="none" xmlns="http://www.w3.org/2000/svg">
<path d="M24.8275 5.68075C24.7955 5.60532 24.7455 5.53891 24.6818 5.48734C24.6181 5.43578 24.5428 5.40065 24.4623 5.38503C24.3819 5.36941 24.2989 5.3738 24.2205 5.39779C24.1422 5.42178 24.0709 5.46465 24.013 5.52263L18.957 10.5786L16.0108 9.98925L15.4215 7.043L20.4775 1.987C20.5355 1.92911 20.5784 1.85786 20.6023 1.77951C20.6263 1.70117 20.6307 1.61814 20.6151 1.53771C20.5994 1.45728 20.5643 1.38192 20.5127 1.31827C20.4611 1.25461 20.3947 1.20459 20.3193 1.17263C18.723 0.496379 16.9582 0.3242 15.2613 0.679165C13.5644 1.03413 12.0166 1.89928 10.8252 3.15866C9.63387 4.41804 8.85592 6.01149 8.59563 7.72544C8.33534 9.43939 8.60515 11.192 9.3689 12.7483L1.5519 19.5002C1.54265 19.5082 1.53373 19.5165 1.52515 19.5252C0.87412 20.1827 0.509929 21.0713 0.512218 21.9965C0.514507 22.9218 0.883089 23.8085 1.53736 24.4628C2.19164 25.117 3.07837 25.4856 4.00364 25.4879C4.92891 25.4901 5.81743 25.1259 6.4749 24.4749C6.48348 24.4663 6.49178 24.4574 6.49977 24.4481L13.2516 16.6314C14.808 17.3951 16.5606 17.6649 18.2745 17.4046C19.9885 17.1443 21.582 16.3663 22.8414 15.1749C24.1008 13.9835 24.9659 12.4357 25.3209 10.7388C25.6759 9.04191 25.5037 7.27705 24.8275 5.68075ZM22.3033 14.3032C21.1529 15.4468 19.6641 16.1885 18.0584 16.418C16.4526 16.6475 14.8157 16.3525 13.391 15.577C13.29 15.5158 13.1705 15.4924 13.0539 15.5109C12.9372 15.5294 12.8308 15.5886 12.7536 15.678L5.7554 23.78C5.2854 24.2431 4.65136 24.5017 3.99152 24.4992C3.33168 24.4968 2.69956 24.2336 2.23297 23.7671C1.76638 23.3005 1.50317 22.6684 1.50072 22.0085C1.49827 21.3487 1.75679 20.7146 2.2199 20.2446L10.3218 13.2465C10.4086 13.1715 10.467 13.0689 10.4872 12.956C10.5074 12.843 10.4881 12.7265 10.4325 12.6261C9.71017 11.3164 9.39571 9.82068 9.52951 8.33096C9.66331 6.84123 10.2393 5.42548 11.1834 4.26544C12.1276 3.10539 13.3969 2.25399 14.8285 1.8205C16.26 1.38702 17.7884 1.39124 19.2175 1.83263L14.525 6.52513C14.4669 6.58333 14.424 6.65499 14.4001 6.73375C14.3763 6.81251 14.3723 6.89594 14.3884 6.97663L15.0955 10.5122C15.1149 10.609 15.1625 10.6979 15.2323 10.7677C15.3021 10.8375 15.391 10.885 15.4878 10.9044L19.0233 11.6116C19.104 11.6279 19.1875 11.624 19.2663 11.6001C19.3451 11.5762 19.4168 11.5332 19.4749 11.4749L24.1674 6.78238C24.5744 8.08658 24.6158 9.47745 24.2871 10.8036C23.9584 12.1297 23.2723 13.3402 22.3033 14.3034V14.3032Z" fill="#4F4F4F"/>
</svg>
