<svg width="27" height="26" viewBox="0 0 27 26" fill="none" xmlns="http://www.w3.org/2000/svg">
<path d="M23.364 15.364C22.0795 16.64 20.4416 17.5013 18.6623 17.8363C16.883 18.1714 15.0441 17.9649 13.3834 17.2435L6.87814 24.775C6.86222 24.7934 6.84564 24.8113 6.82839 24.8285C6.45696 25.1999 6.016 25.4946 5.53069 25.6956C5.04539 25.8966 4.52524 26.0001 3.99995 26.0001C3.47466 26.0001 2.95452 25.8966 2.46921 25.6956C1.98391 25.4946 1.54295 25.1999 1.17152 24.8285C0.421368 24.0784 -6.10352e-05 23.0609 -6.10352e-05 22.0001C-6.10352e-05 20.9392 0.421368 19.9218 1.17152 19.1716C1.18877 19.1544 1.20652 19.1379 1.22502 19.1219L8.75664 12.6165C8.03302 10.9657 7.82156 9.13565 8.14964 7.36331C8.47772 5.59096 9.33024 3.95789 10.5968 2.67548C11.8634 1.39307 13.4858 0.520367 15.2539 0.170327C17.0221 -0.179712 18.8546 0.00903046 20.5143 0.712125C20.6651 0.776098 20.7979 0.876121 20.901 1.00341C21.0041 1.1307 21.0744 1.28136 21.1056 1.44216C21.1369 1.60295 21.1282 1.76897 21.0803 1.92563C21.0325 2.08229 20.9468 2.22479 20.831 2.34062L15.9643 7.20725L16.4356 9.56437L18.7926 10.0358L23.6595 5.169C23.7754 5.0532 23.9178 4.9676 24.0745 4.91974C24.2311 4.87187 24.3971 4.86319 24.5579 4.89447C24.7187 4.92574 24.8693 4.99601 24.9966 5.09911C25.1239 5.2022 25.2239 5.33497 25.2879 5.48575C25.9924 7.13578 26.1856 8.95922 25.8426 10.7203C25.4997 12.4813 24.6362 14.0989 23.364 15.364Z" fill="#0064A9"/>
</svg>
